<svg width="135" height="46" viewBox="0 0 135 46" fill="none" xmlns="http://www.w3.org/2000/svg">
<path d="M35.0263 40.8693C33.1316 41.5975 31.2005 42.2389 29.2397 42.7912C26.6977 43.5275 24.1083 44.1104 21.4873 44.5362C19.381 44.9112 17.2361 45.0596 15.0941 44.9785C12.7045 44.8594 10.3683 44.269 8.23699 43.2457C5.36319 41.8852 3.10635 39.5969 1.87942 36.7997C0.84402 33.9226 0.720058 30.8246 1.52262 27.8825C2.6561 23.3933 4.69302 19.1497 7.52338 15.3809C9.382 12.797 11.4742 10.3717 13.5955 7.97384C15.6714 5.62685 17.7755 3.30224 19.9077 1C18.5364 3.12868 17.3902 5.37862 16.4856 7.71758C15.7305 9.59639 15.2123 11.552 14.9416 13.5444C14.5996 15.808 14.8926 18.1163 15.7915 20.2406C17.0349 22.8253 19.3143 24.843 22.1328 25.8538C24.1001 26.5243 26.1849 26.837 28.2763 26.7751C31.5338 26.6526 34.7678 26.2016 37.9229 25.4298C41.4588 24.6641 44.9778 23.8311 48.4778 22.9313C69.8405 17.4645 134 1.2227 134 1.2227C134 1.2227 59.8695 31.1803 35.0263 40.8693V40.8693Z" stroke="#FCFAFA" stroke-linecap="round" stroke-linejoin="round"/>
</svg>
